<svg height='300px' width='300px'  fill="#ff7101" xmlns="http://www.w3.org/2000/svg" xmlns:xlink="http://www.w3.org/1999/xlink" version="1.1" x="0px" y="0px" viewBox="0 0 64 64" enable-background="new 0 0 64 64" xml:space="preserve"><path d="M61.551,17.375c-0.178,0-0.344,0.04-0.506,0.079c-0.141,0.034-0.273,0.065-0.395,0.065c-0.174,0-0.373-0.053-0.559-0.445  c-0.289-0.616-0.674-2.383-0.402-2.821c0.025-0.042,0.09-0.125,0.172-0.23c0.477-0.61,0.973-1.291,0.83-1.664  c-0.047-0.12-0.15-0.195-0.309-0.224c-0.164-0.03-0.545-0.049-0.969-0.049c-0.262,0-1.137,0.009-1.4,0.127  c-0.211,0.094-0.365,0.235-0.512,0.371c-0.219,0.202-0.406,0.375-0.752,0.388c-0.879,0.03-1.758,0.409-2.607,0.777  c-0.867,0.375-1.762,0.761-2.639,0.761c-0.232,0-0.459-0.027-0.674-0.081l-0.047-0.012l-0.42,0.519  c-0.105,0.086-0.172,0.188-0.234,0.288c-0.094,0.144-0.172,0.268-0.361,0.335c-0.215,0.077-0.506,0.046-0.777,0.002l-0.039-0.005  c-0.094-0.015-0.188-0.022-0.277-0.022c-0.422,0-0.729,0.162-1.055,0.334c-0.205,0.108-0.416,0.22-0.664,0.291  c-0.094,0.027-0.244,0.042-0.438,0.042c-0.322,0-0.725-0.042-0.939-0.097c-0.043-0.011-0.088-0.024-0.133-0.036  c-0.152-0.042-0.309-0.086-0.443-0.086c-0.117,0-0.211,0.036-0.271,0.106c-0.088,0.099-0.115,0.262-0.082,0.5  c0.016,0.117,0.039,0.214,0.061,0.299c0.057,0.218,0.09,0.351-0.074,0.602c-0.232,0.232-0.506,0.477-0.793,0.736  c-0.594,0.533-1.207,1.085-1.58,1.622l-1.453,2.093c-0.631,0.908-3.652,1.592-5.305,1.592c-0.23,0-0.426-0.013-0.58-0.04  c-0.453-0.078-0.928-0.28-1.387-0.475c-0.586-0.25-1.194-0.509-1.77-0.509c-0.86,0-1.688,0.237-2.487,0.468  c-0.608,0.174-1.235,0.354-1.858,0.424l-2.297,0.086l-0.018,0.048c-0.063,0.171-0.195,0.273-0.416,0.323  c-0.204,0.043-0.385-0.067-0.57-0.188c-0.157-0.104-0.319-0.211-0.51-0.211c-0.08,0-0.14,0.021-0.182,0.064  c-0.07,0.073-0.066,0.177-0.063,0.29c0.004,0.128,0.008,0.248-0.087,0.325c-0.026,0.02-0.049,0.031-0.069,0.031  c-0.07,0-0.152-0.125-0.226-0.235c-0.106-0.162-0.218-0.333-0.388-0.303c-0.211,0.035-0.369,0.188-0.537,0.351  c-0.224,0.217-0.456,0.442-0.851,0.442c-0.044,0-0.097,0.001-0.155,0.001c-0.07,0.001-0.148,0.002-0.23,0.002  c-0.19,0-0.768,0-0.964-0.174c-0.045-0.04-0.098-0.094-0.158-0.155c-0.225-0.23-0.506-0.518-0.771-0.518  c-0.155,0-0.277,0.095-0.363,0.283c-0.316,0.689-0.591,0.829-0.906,0.829c-0.232,0-0.502-0.083-0.846-0.188  c-0.159-0.049-0.333-0.103-0.522-0.154l-0.02-0.002c-0.585,0-1.227,0.086-1.905,0.177c-0.692,0.092-1.407,0.188-2.072,0.188  c-0.189,0-0.369-0.008-0.535-0.023c-0.618-0.058-1.169-0.401-1.655-0.705c-0.448-0.28-0.872-0.543-1.283-0.543  c-0.628,0-0.97,0.368-1.3,0.724c-0.218,0.235-0.443,0.478-0.755,0.626c-0.234,0.111-0.486,0.185-0.771,0.224l-0.043,0.006  l-0.018,0.041c-0.456,1.086-0.454,2.541-0.432,3.115c0.006,0.142,0.019,0.286,0.032,0.43c0.053,0.574,0.104,1.118-0.335,1.533  c-0.382,0.36-0.956,0.604-1.53,0.651l-1.3,0.032l0.018,0.09c0.018,0.083,0.024,0.195,0.031,0.303  c0.01,0.159,0.018,0.297,0.059,0.374c0.285,0.537,0.601,0.836,0.855,1.077c0.444,0.419,0.711,0.673,0.499,1.766  c-0.138,0.706-0.088,1.239-0.04,1.754c0.048,0.501,0.092,0.975-0.051,1.563L3.707,37.9l1.358-0.647l0.009-0.03  c0.058-0.187,0.107-0.355,0.153-0.511c0.382-1.305,0.451-1.54,2.119-1.969l4.106-1.056c0.194-0.051,0.365-0.074,0.52-0.074  c0.4,0,0.629,0.165,0.872,0.339c0.221,0.159,0.451,0.323,0.813,0.375c0.328,0.046,0.763-0.015,1.169-0.076  c0.298-0.045,0.607-0.093,0.889-0.093c0.261,0,0.472,0.041,0.645,0.124c0.403,0.196,1.203,0.523,2.027,0.523  c0.832,0,1.454-0.326,1.851-0.971c0.284-0.46,0.562-0.685,0.849-0.685c0.168,0,0.324,0.071,0.474,0.14  c0.138,0.063,0.268,0.122,0.397,0.122c0.173,0,0.312-0.106,0.427-0.327c0.181-0.348,1.937-0.627,3.271-0.627  c0.297,0,0.532,0.017,0.659,0.047c0.011,0.002,0.02,0.007,0.021,0.01c0.029,0.084-0.219,0.404-0.367,0.596  c-0.229,0.294-0.368,0.482-0.368,0.613c0,0.18-0.043,0.459-0.089,0.753c-0.073,0.467-0.148,0.949-0.069,1.166l0.009,0.018  c0.208,0.3,0.428,0.445,0.673,0.445c0.278,0,0.531-0.184,0.8-0.378c0.248-0.179,0.504-0.363,0.769-0.38  c0.027,0.03,0.066,0.064,0.101,0.085c0.206,0.693,1.324,1.126,2.226,1.476c0.35,0.134,0.682,0.263,0.897,0.384  c-0.049,0.097-0.278,0.169-0.501,0.238c-0.378,0.119-0.85,0.266-0.871,0.665c-0.02,0.38,0.336,0.663,0.713,0.964  c0.57,0.454,1.11,0.883,0.502,1.65c-0.37,0.47-0.835,0.729-1.328,1.004c-0.552,0.308-1.123,0.626-1.546,1.261l-0.035,0.054  l0.046,0.043c0.228,0.219,0.483,0.538,0.404,0.81c-0.075,0.257-0.44,0.457-1.058,0.58c-0.164,0.032-0.311,0.036-0.441,0.038  c-0.2,0.004-0.359,0.007-0.451,0.125c-0.084,0.107-0.09,0.289-0.019,0.608c0.105,0.477-0.243,1.605-0.622,2.014l-0.043,0.046  l0.806,1.097c0.263,0.298,0.402,0.547,0.335,0.937c-0.013,0.078-0.036,0.155-0.057,0.233c-0.029,0.102-0.059,0.208-0.071,0.318  c-0.043,0.38-0.031,0.638,0.036,0.763l0.026,0.049l0.055-0.01c0.09-0.017,0.195-0.058,0.307-0.101  c0.153-0.06,0.327-0.126,0.461-0.126c0.106,0,0.171,0.041,0.21,0.136c0.05,0.118,0.093,0.241,0.134,0.362  c0.155,0.444,0.302,0.864,0.714,0.864c0.154,0,0.332-0.062,0.542-0.19c0.065-0.039,0.127-0.075,0.188-0.111  c0.586-0.347,1.01-0.599,1.121-1.398c0.062-0.447,0.295-0.926,0.625-1.277c0.023-0.025,0.04-0.032,0.045-0.032  c0.001,0,0.1,0.028,0.179,0.493c0.107,0.63,0.444,0.659,0.871,0.696c0.089,0.008,0.184,0.017,0.284,0.03  c0.188,0.027,0.369,0.142,0.543,0.252c0.197,0.123,0.382,0.239,0.575,0.239h0.056l0.018-0.054c0.151-0.482,0.332-1.21,0.332-1.933  c0-0.442,0.135-0.798,0.273-1.174c0.15-0.404,0.307-0.822,0.291-1.359c-0.021-0.623,0.131-0.676,0.363-0.757  c0.174-0.06,0.388-0.135,0.57-0.438c0.213-0.357,0.295-0.777,0.373-1.185c0.088-0.456,0.178-0.929,0.459-1.304  c0.221-0.296,0.34-0.627,0.457-0.946c0.189-0.528,0.354-0.984,0.924-1.175l0.047-0.017l0.096-1.276  c-0.012-0.423-0.326-0.67-0.629-0.909c-0.26-0.204-0.504-0.397-0.572-0.689c-0.021-0.085,0.338-0.239,0.475-0.296  c0.105-0.047,0.189-0.082,0.238-0.116c0.232-0.16,0.416-0.394,0.596-0.617c0.213-0.27,0.416-0.522,0.684-0.65  c0.354-0.167,0.658-0.279,0.957-0.389c0.674-0.249,1.258-0.464,1.973-1.211c0.369-0.385,0.414-0.896,0.459-1.39  c0.029-0.341,0.059-0.662,0.189-0.922c0.328-0.645,0.818-1.023,1.293-1.388c0.439-0.338,0.895-0.689,1.215-1.248  c0.15-0.264,0.283-0.503,0.406-0.727c0.529-0.96,0.881-1.595,1.859-2.577c0.105-0.046,0.203-0.095,0.299-0.143  c0.326-0.161,0.607-0.3,0.984-0.3c0.154,0,0.303,0.009,0.445,0.016c0.137,0.007,0.266,0.015,0.395,0.015  c0.375,0,0.779-0.055,1.178-0.453c0.629-0.631,1.316-0.999,2.102-1.125c0.549-0.088,1.105-0.343,1.645-0.589  c0.107-0.049,0.213-0.098,0.318-0.145l1.029-1.099c0.305-0.209,0.516-0.316,0.67-0.394c0.42-0.212,0.457-0.252,0.707-1.27  c0.066-0.274,0.379-0.594,0.682-0.594c0.121,0,0.225,0.051,0.313,0.152c0.066,0.077,0.182,0.115,0.354,0.115  c0.494,0,1.385-0.327,1.766-0.467l0.072-0.026c0.828-0.303,1.668-1.125,1.668-2.11v-0.077H61.551z"></path></svg>