<svg height='300px' width='300px'  fill="#ff7101" xmlns="http://www.w3.org/2000/svg" xmlns:xlink="http://www.w3.org/1999/xlink" version="1.1" x="0px" y="0px" viewBox="0 0 64 64" enable-background="new 0 0 64 64" xml:space="preserve"><path d="M61.733,24.345c-0.073-0.276-0.037-0.532,0.003-0.804c0.023-0.163,0.048-0.332,0.048-0.51c0-0.593-0.979-1.463-1.506-1.594  l-0.076-0.02l-0.036,0.07c-0.063,0.126-0.14,0.265-0.23,0.427c-0.085,0.152-0.181,0.325-0.288,0.528  c-0.21,0.396-0.203,0.968-0.198,1.521c0.007,0.598,0.012,1.162-0.246,1.406c-0.21,0.198-0.42,0.294-0.642,0.294  c-0.423,0-0.829-0.356-1.188-0.672c-0.318-0.278-0.594-0.521-0.864-0.521c-0.205,0-0.369,0.137-0.5,0.415  c-0.067,0.146-0.178,0.207-0.368,0.207c-0.116,0-0.248-0.022-0.376-0.045c-0.255-0.044-0.524-0.072-0.698,0.012  c-0.132,0.063-0.246,0.155-0.356,0.243c-0.165,0.134-0.323,0.26-0.509,0.26c-0.09,0-0.185-0.028-0.287-0.086  c-0.292-0.162-0.426-0.31-0.544-0.439c-0.208-0.231-0.354-0.362-0.905-0.362c-0.079,0-0.167,0.003-0.259,0.009  c-0.504,0-0.779,0.37-1,0.668c-0.163,0.218-0.303,0.407-0.484,0.407c-0.136,0-0.312-0.106-0.521-0.314  c-0.346-0.346-0.861-0.424-1.316-0.491c-0.495-0.074-0.923-0.139-1.052-0.498c-0.024-0.067-0.058-0.211-0.094-0.376  c-0.154-0.688-0.272-1.139-0.525-1.153c-0.278,0-0.748,0.356-1.291,0.77c-0.389,0.296-0.792,0.603-1.048,0.701  c-0.46,0.178-0.842,0.264-1.169,0.264c-0.6,0-1.028-0.285-1.622-0.681c-0.208-0.137-0.443-0.293-0.711-0.453  c-1.105-0.663-2.133-0.759-3.125-0.852c-0.804-0.075-1.562-0.146-2.352-0.496c-0.183-0.081-0.377-0.12-0.596-0.12  c-0.469,0-0.952,0.183-1.42,0.359c-0.423,0.161-0.822,0.312-1.168,0.312c-0.433,0-0.954-0.211-1.151-1.864  c-0.131-1.098-0.552-1.632-1.289-1.632c-0.579,0-1.27,0.322-2,0.663c-0.733,0.343-1.491,0.696-2.118,0.696  c-0.552,0-0.931-0.271-1.189-0.854c-0.236-0.531-0.432-0.738-0.7-0.738c-0.106,0-0.21,0.032-0.33,0.068  c-0.152,0.047-0.326,0.099-0.549,0.099c-0.167,0-0.308-0.217-0.486-0.491c-0.275-0.423-0.651-1.002-1.416-1.116  c-0.221-0.091-0.494-0.172-0.783-0.258c-0.711-0.211-1.517-0.45-1.741-0.903c-0.081-0.165-0.08-0.349,0.002-0.563  c0.356-0.926,0.372-1.732,0.045-2.271c-0.247-0.407-0.675-0.648-1.273-0.717l-0.028-0.003c-1.023-0.116-2.423-0.275-3.304-0.742  c-0.157-0.083-0.475-0.34-0.812-0.611c-0.821-0.663-1.428-1.133-1.751-1.133c-0.13,0-0.218,0.074-0.241,0.203  c-0.106,0.588-0.57,0.798-0.969,0.798c-0.137,0-0.277-0.023-0.415-0.069c-0.18-0.059-0.336-0.087-0.48-0.087  c-0.359,0-0.563,0.181-0.761,0.355c-0.064,0.058-0.13,0.115-0.203,0.168l-0.035,0.025l-0.005,0.043  c-0.162,1.479,0.446,2.745,1.712,3.564c0.624,0.403,0.672,1.21,0.715,1.922c0.037,0.607,0.071,1.182,0.457,1.437  c0.176,0.116,0.396,0.206,0.629,0.301c0.469,0.191,0.955,0.389,1.042,0.812c0.063,0.313,0.347,0.762,0.62,1.196  c0.207,0.328,0.518,0.823,0.479,0.922c-0.208,0.063-0.498,0.136-0.834,0.221c-1.259,0.315-2.984,0.749-3.418,1.44  c-0.031,0.05-0.036,0.114-0.014,0.192c0.118,0.422,1.083,1.404,1.367,1.546c0.783,0.392,1.184,0.746,1.227,1.082  c0.046,0.37-0.348,0.714-0.766,1.078c-0.453,0.394-0.921,0.802-0.912,1.32c0.007,0.345,0.225,0.686,0.667,1.041l0.11,0.089  l0.011-0.033c0.539,0.539,1.95,1.618,2.306,1.831c0.206,0.124,0.42,0.182,0.673,0.182c0.155,0,0.307-0.021,0.454-0.042  c0.148-0.021,0.288-0.04,0.43-0.04c0.192,0,0.355,0.037,0.513,0.116c0.615,0.308,0.984,0.721,1.341,1.121  c0.57,0.64,1.109,1.244,2.522,1.282c-0.143,0.237-0.527,0.354-1.167,0.354c-0.652,0-1.459-0.119-2.241-0.234  c-0.709-0.105-1.378-0.204-1.872-0.204c-0.297,0-0.509,0.037-0.648,0.112c-0.205,0.109-0.406,0.162-0.634,0.162  c-0.18,0-0.351-0.031-0.533-0.064c-0.182-0.033-0.371-0.067-0.569-0.067c-0.332,0-0.625,0.098-0.925,0.306  c-0.972,0.675-2.3,2.038-2.93,2.887c-0.715,0.964-2.612,1.954-3.867,2.607c-0.158,0.082-0.305,0.159-0.438,0.229  c-1.778,0.943-1.644,2.28-1.501,3.696c0.073,0.725,0.148,1.475-0.025,2.217c-0.174,0.741,0.294,0.992,0.789,1.26  c0.317,0.171,0.674,0.362,0.916,0.713l-0.289,1.878l0.083,0.025c0.9,0.257,1.766,0.388,2.572,0.388c1.68,0,3.087-0.559,4.185-1.658  c0.043-0.043,0.078-0.048,0.102-0.048c0.248,0,0.642,0.618,0.876,0.986c0.113,0.178,0.21,0.33,0.285,0.418  c0.164,0.19,0.343,0.283,0.549,0.283c0.188,0,0.367-0.077,0.541-0.152c0.244-0.104,0.477-0.188,0.674-0.084  c0.398,0.212,1.686,2.192,2.024,2.803c0.167,0.301,0.361,0.448,0.595,0.448c0.303,0,0.606-0.255,0.928-0.523  c0.307-0.259,0.625-0.526,0.947-0.58c0.156-0.025,0.302-0.038,0.459-0.038c0.066,0,0.125,0.002,0.177,0.004  c0.043,0.002,0.082,0.004,0.117,0.004c0.386,0,0.386-0.25,0.386-0.913c0-0.497,0.104-0.75,0.309-0.75  c0.311,0,0.805,0.466,1.099,0.744c0.062,0.058,0.116,0.107,0.163,0.149c0.383,0.343,0.845,0.509,1.411,0.509  c0.531,0,1.093-0.145,1.635-0.285c0.109-0.028,0.218-0.056,0.345-0.09c0.383-0.181,0.887-0.495,1.42-0.827  c0.973-0.606,2.075-1.293,2.72-1.347c0.15-0.015,0.353-0.008,0.569,0c0.14,0.003,0.287,0.009,0.433,0.009  c0.467,0,0.971-0.041,1.165-0.339c0.11-0.169,0.103-0.396-0.021-0.679c-0.12-0.271-0.118-0.493,0.005-0.684  c0.338-0.521,1.552-0.784,3.605-0.784c0.24,0,0.454,0.004,0.627,0.006c0.116,0.002,0.214,0.003,0.288,0.003c0,0,0.002,0,0.003,0  c0.332,0.034,2.532,2.733,3.157,3.6c0.021,0.03,0.05,0.07,0.082,0.118c0.449,0.646,0.964,1.309,1.374,1.309  c0.103,0,0.246-0.042,0.352-0.239c0.043-0.079,0.086-0.161,0.129-0.245c0.371-0.715,0.792-1.523,1.688-1.558  c0.534-0.021,0.801-0.248,1.059-0.467c0.179-0.152,0.349-0.296,0.61-0.384c0.149-0.051,0.336-0.075,0.573-0.075  c0.334,0,0.704,0.048,1.064,0.095c0.278,0.036,0.542,0.07,0.767,0.079c0.029,0,0.059,0,0.086,0c0.837,0,0.861-0.506,0.886-0.996  c0.016-0.333,0.032-0.678,0.254-0.961c0.396-0.43,0.917-1.077,1.146-1.727c0.116-0.33,0.109-0.615,0.104-0.917  c-0.003-0.079-0.005-0.159-0.005-0.242c0-0.45,0.565-1.346,0.867-1.699c0.179-0.208,0.243-0.429,0.307-0.642  c0.076-0.266,0.149-0.518,0.433-0.756c0.1-0.082,0.201-0.122,0.312-0.122c0.177,0,0.36,0.101,0.539,0.199  c0.184,0.101,0.356,0.195,0.534,0.195c0.2,0,0.361-0.122,0.492-0.373c0.416-0.8,0.789-1.234,1.566-1.234  c0.173,0,0.362,0.021,0.571,0.063l1.005,0.278l0.04-0.058c0.146-0.206,0.262-0.418,0.374-0.622c0.264-0.479,0.513-0.932,1.089-1.202  l0.151-0.07c1.168-0.543,2.623-1.22,2.318-2.715c-0.192-0.941-0.785-1.416-1.359-1.874c-0.676-0.541-1.314-1.051-1.241-2.319  c0.059-1.032,0.102-1.778,1.114-1.962c0.546-0.099,1.431-1.197,2.077-1.999c0.2-0.248,0.373-0.464,0.5-0.604  c0.136-0.076,0.248-0.168,0.357-0.257c0.115-0.094,0.224-0.182,0.354-0.25c0.538-0.284,0.918-0.59,1.149-1.229  C61.893,25.046,61.824,24.687,61.733,24.345z"></path></svg>