<svg height='300px' width='300px'  fill="#ff7101" xmlns="http://www.w3.org/2000/svg" xmlns:xlink="http://www.w3.org/1999/xlink" version="1.1" x="0px" y="0px" viewBox="0 0 64 64" enable-background="new 0 0 64 64" xml:space="preserve"><path d="M61.95,14.052c0.156-0.971-0.57-1.25-1.212-1.498c-0.313-0.121-0.609-0.234-0.813-0.416  c-0.393-0.35-0.616-0.685-0.521-1.268c0.104-0.625-0.042-0.995-0.229-1.464c-0.057-0.146-0.119-0.302-0.179-0.48l-0.018-0.053  l-1.071-0.295c-1.394-0.277-1.957,0.26-2.534,1.368c-0.134,0.258-0.261,0.288-0.342,0.288c-0.138,0-0.3-0.09-0.472-0.185  c-0.205-0.112-0.438-0.241-0.682-0.241c-0.169,0-0.327,0.061-0.47,0.182c-0.355,0.298-0.45,0.625-0.535,0.914  c-0.063,0.218-0.122,0.424-0.285,0.614c-0.332,0.388-0.983,1.394-0.983,1.962c0,0.092,0.003,0.18,0.004,0.265  c0.008,0.318,0.015,0.592-0.099,0.912c-0.245,0.696-0.85,1.415-1.193,1.788c-0.284,0.365-0.305,0.788-0.321,1.161  c-0.029,0.565-0.041,0.895-0.827,0.869c-0.23-0.009-0.51-0.044-0.806-0.083c-0.392-0.051-0.798-0.104-1.171-0.104  c-0.277,0-0.501,0.03-0.683,0.091c-0.32,0.108-0.527,0.283-0.726,0.453c-0.273,0.231-0.508,0.432-1.01,0.45  c-1.087,0.042-1.59,1.011-1.994,1.79c-0.046,0.089-0.092,0.177-0.138,0.262c-0.069,0.129-0.142,0.144-0.192,0.144  c-0.39,0-1.053-0.956-1.302-1.316c-0.037-0.052-0.067-0.095-0.091-0.127c-0.028-0.04-3.009-3.958-3.565-3.958  c-0.079,0-0.185-0.002-0.312-0.003c-0.186-0.003-0.417-0.007-0.677-0.007c-2.314,0-3.641,0.308-4.053,0.939  c-0.172,0.265-0.18,0.58-0.022,0.937c0.103,0.231,0.116,0.409,0.039,0.526c-0.156,0.241-0.688,0.268-1.073,0.268  c-0.155,0-0.311-0.004-0.459-0.009c-0.244-0.007-0.468-0.013-0.637,0c-0.745,0.063-1.953,0.815-3.019,1.48  c-0.567,0.354-1.104,0.688-1.485,0.871c-0.116,0.029-0.233,0.059-0.351,0.09c-0.571,0.148-1.162,0.3-1.708,0.3  c-0.554,0-1.003-0.161-1.375-0.492c-0.048-0.044-0.105-0.098-0.17-0.159c-0.362-0.34-0.909-0.856-1.327-0.856  c-0.361,0-0.544,0.343-0.544,1.018c0,0.768-0.027,0.768-0.203,0.768c-0.035,0-0.074-0.001-0.118-0.003  c-0.058-0.002-0.125-0.004-0.198-0.004c-0.178,0-0.351,0.014-0.527,0.044c-0.404,0.067-0.769,0.373-1.12,0.669  c-0.315,0.265-0.613,0.514-0.861,0.514c-0.167,0-0.316-0.122-0.455-0.373c-0.284-0.512-1.746-2.823-2.262-3.097  c-0.102-0.054-0.208-0.081-0.323-0.081c-0.204,0-0.398,0.083-0.585,0.164c-0.175,0.076-0.339,0.146-0.498,0.146  c-0.158,0-0.294-0.073-0.429-0.23c-0.071-0.083-0.171-0.242-0.288-0.424c-0.329-0.518-0.739-1.161-1.122-1.161  c-0.097,0-0.184,0.039-0.259,0.114c-1.138,1.142-2.601,1.722-4.348,1.722c-0.847,0-1.758-0.139-2.707-0.41L3.94,19.315l-0.042,0.067  c-0.119,0.19-0.472,0.323-0.813,0.453c-0.454,0.172-0.922,0.349-1.033,0.709c-0.063,0.204-0.002,0.433,0.186,0.697  c0.653,0.925,1.193,1.838,0.643,2.856l-0.654,1.719l0.136,0.015c1.594,0.173,1.686,0.547,2.026,1.94  c0.242,0.989,0.634,1.083,1.129,1.202c0.25,0.06,0.534,0.128,0.86,0.328c0.376,0.229,0.679,0.996,0.971,1.739  c0.247,0.624,0.501,1.269,0.818,1.648c0.433,0.517,0.861,0.818,1.272,0.895l0.044,0.004c0.196,0,0.346-0.226,0.52-0.488  c0.174-0.263,0.371-0.558,0.574-0.558c0.064,0,0.129,0.028,0.2,0.086c0.549,0.447,0.267,1.006-0.06,1.654  c-0.288,0.571-0.586,1.161-0.239,1.681c0.151,0.227,0.305,0.336,0.428,0.424c0.202,0.143,0.323,0.229,0.335,0.758l0.051,2.211  l0.026,0.029c0.103,0.114,0.214,0.211,0.321,0.307c0.253,0.224,0.472,0.417,0.536,0.753c0.03,0.162,0.044,0.311,0.057,0.443  c0.047,0.486,0.075,0.875,1.005,0.65c0.193-0.048,0.57-0.128,0.921-0.128c0.242,0,0.421,0.038,0.533,0.113  c0.256,0.17,0.58,0.241,0.866,0.305c0.246,0.053,0.501,0.109,0.53,0.208c0.015,0.053-0.01,0.191-0.354,0.536  c-0.513,0.514-1.014,1.09-1.014,1.969c0,1.002-1.096,1.186-2.063,1.346c-0.178,0.03-0.348,0.059-0.5,0.09  c-0.742,0.158-1.774,1.144-1.774,1.897v0.104l0.104,0.002c0.883,0.014,1.758,0.62,2.604,1.208c0.865,0.602,1.761,1.224,2.685,1.224  c0.46,0,0.888-0.15,1.307-0.457c1.066-0.781,1.848-0.89,2.535-0.89c0.233,0,0.464,0.014,0.708,0.028  c0.255,0.016,0.52,0.03,0.801,0.03c0.539,0,1.021-0.06,1.516-0.187l0.122-0.032c0.672-0.174,1.157-0.298,1.47-0.298  c0.495,0,0.596,0.293,0.596,1.742c0,0.622-0.255,1.113-0.501,1.587c-0.221,0.427-0.431,0.831-0.431,1.291  c0,0.154,0.038,0.266,0.116,0.341c0.123,0.117,0.349,0.103,0.601,0.056c0.107-0.019,0.218-0.038,0.314-0.038l0.028,0.001  c0.65,0.027,0.736,0.207,0.812,0.365c0.068,0.141,0.145,0.301,0.492,0.301c0.23,0,0.58-0.068,1.1-0.215l2.319-0.657  c0.326-0.095,0.723,0.122,1.096,0.337c0.218,0.126,0.443,0.255,0.661,0.32c0.203,0.06,0.394,0.088,0.582,0.088  c0.3,0,0.543-0.073,0.8-0.15c0.266-0.079,0.54-0.162,0.893-0.162c0.104,0,0.136,0.037,0.146,0.05  c0.084,0.094,0.051,0.347,0.021,0.591c-0.043,0.33-0.088,0.67,0.095,0.878c0.096,0.109,0.242,0.165,0.435,0.165  c0.199,0,0.454-0.058,0.777-0.174c0.79-0.286,1.229-0.625,1.339-1.034c0.084-0.314-0.028-0.659-0.337-1.028  c-0.174-0.209-0.25-0.389-0.233-0.555c0.03-0.279,0.34-0.522,0.665-0.777c0.384-0.301,0.817-0.642,0.952-1.148  c0.114-0.434-0.144-0.923-0.393-1.397c-0.236-0.446-0.459-0.87-0.329-1.162c0.077-0.169,0.273-0.296,0.6-0.383  c0.258,0.168,0.513,0.245,0.762,0.32c0.212,0.064,0.412,0.124,0.617,0.238c0.719,0.397,1.318,0.933,1.833,1.637  c0.045,0.062,0.093,0.136,0.148,0.214c0.271,0.408,0.646,0.966,1.121,0.966c0.578,0,1.23,0.051,1.671,0.43  c0.504,0.432,1.48,1.041,2.127,1.256l0.042,0.014l0.038-0.018c0.32-0.155,1.837-1.068,2.142-1.329  c0.275-0.235,0.411-0.492,0.403-0.762c-0.015-0.566-0.649-1.058-1.16-1.451l-0.154-0.12c-0.324-0.256-0.203-0.452,0.037-0.777  c0.146-0.197,0.299-0.399,0.26-0.628c-0.026-0.146-0.125-0.275-0.305-0.395c-0.199-0.133-0.397-0.243-0.59-0.351  c-0.305-0.17-0.594-0.33-0.888-0.576c-0.313-0.261-0.521-0.624-0.72-0.976c-0.326-0.57-0.662-1.162-1.464-1.369  c-0.581-0.148-0.85-1.115-0.877-1.652c0.428-0.096,1.39-0.502,1.369-0.83c-0.013-0.221-0.338-0.248-0.62-0.248  c-0.377,0-0.738,0.026-1.087,0.051c-0.328,0.024-0.638,0.047-0.938,0.047c-0.696,0-1.439-0.1-2.161-0.824  c-0.296-0.297-0.749-0.307-1.185-0.316c-0.298-0.007-0.579-0.014-0.787-0.108c-1.224-0.566-1.654-0.99-2.295-2.275  c-0.258-0.517-0.078-1.141,0.416-1.453c0.577-0.362,0.465-0.905,0.367-1.385c-0.015-0.071-0.029-0.144-0.04-0.229  c0.026-0.03,0.126-0.081,0.514-0.081c0.069,0,0.138,0.002,0.199,0.003c0.174,0.003,0.29,0.003,0.345-0.013  c0.589-0.164,0.917-0.387,1.132-0.533c0.149-0.102,0.247-0.168,0.347-0.168c0.171,0,0.422,0.184,0.991,0.728  c0.478,0.456,1.212,0.945,1.838,0.945c0.387,0,0.879-0.188,1.036-1.08c0.389-2.207,2.475-2.597,4.315-2.942  c0.184-0.035,0.366-0.069,0.543-0.104c0.466-0.094,0.646-0.697,0.836-1.335c0.2-0.669,0.406-1.362,0.935-1.362  c0.163,0,0.358,0.063,0.577,0.186c0.102,0.057,0.199,0.114,0.295,0.168c0.593,0.34,1.061,0.608,1.599,0.608  c0.402,0,0.807-0.152,1.27-0.48c0.113-0.079,0.295-0.149,0.489-0.222c0.383-0.146,0.779-0.296,0.874-0.604  c0.05-0.159,0.008-0.339-0.128-0.533c-0.646-0.936-0.575-1.241-0.538-1.312c0.012-0.021,0.045-0.085,0.195-0.085  c0.332,0,0.9,0.296,1.449,0.755c0.244,0.203,0.467,0.302,0.679,0.302c0.523,0,0.826-0.581,1.147-1.195  c0.179-0.341,0.362-0.692,0.58-0.926h0.018l0.44-0.761l-0.099,0.099c0.262-0.471,0.645-1.083,0.971-1.33  c0.164-0.124,0.321-0.229,0.469-0.327c0.607-0.406,1.087-0.727,1.087-1.727c0-0.191-0.036-0.4-0.075-0.621  c-0.08-0.455-0.161-0.926,0.097-1.2c0.171-0.183,0.394-0.196,0.629-0.21c0.356-0.021,0.762-0.046,0.762-0.796  c0-0.46-0.096-0.965-0.186-1.453c-0.098-0.511-0.188-0.993-0.169-1.396c0.008-0.147,0.171-0.384,0.344-0.634  C61.577,14.951,61.877,14.516,61.95,14.052z"></path></svg>