<svg height='300px' width='300px'  fill="#ff7101" xmlns="http://www.w3.org/2000/svg" xmlns:xlink="http://www.w3.org/1999/xlink" version="1.1" x="0px" y="0px" viewBox="0 0 64 64" enable-background="new 0 0 64 64" xml:space="preserve"><path d="M46.877,50.353c0.123-0.621,0.473-1.298,0.839-2.015c0.688-1.339,1.467-2.856,0.77-4.251  c-0.04-0.082-0.123-0.121-0.246-0.121c-0.188,0-0.477,0.093-0.78,0.191c-0.296,0.097-0.6,0.206-0.748,0.18  c-0.327-0.048-0.211-1.074-0.141-1.688c0.039-0.356,0.075-0.666,0.051-0.844c-0.055-0.426,0.028-1.047,0.11-1.649  c0.114-0.855,0.233-1.744-0.019-2.218c-0.107-0.201-0.227-0.364-0.344-0.521c-0.24-0.323-0.429-0.579-0.414-1.046  c0.027-0.852-0.063-1.354-0.281-1.58c-0.095-0.098-0.213-0.146-0.353-0.146c-0.308,0-0.678,0.235-1.107,0.508  c-0.51,0.325-1.089,0.69-1.628,0.69c-0.13,0-0.257-0.021-0.373-0.064c-0.385-0.143-0.681-0.442-0.858-0.868  c-0.26-0.624-0.24-1.468,0.052-2.109c0.345-1.108-0.245-1.533-0.676-1.841c-0.247-0.179-0.398-0.295-0.398-0.455  c0-0.404,0.342-0.565,0.703-0.736c0.377-0.18,0.845-0.401,0.57-0.981c-0.11-0.233-0.19-0.493-0.27-0.745  c-0.085-0.272-0.172-0.554-0.296-0.799c-0.296-0.583-1.085-1.017-1.738-1.188c-0.322-0.085-0.515-0.21-0.591-0.385  c-0.136-0.316,0.12-0.784,0.37-1.235c0.095-0.174,0.193-0.353,0.268-0.52c0.199-0.458,0.226-0.79,0.077-1.016  c-0.135-0.207-0.405-0.307-0.828-0.307c-0.326,0-0.693,0.057-1.048,0.112c-0.42,0.064-0.814,0.114-0.96,0.063  c-0.005-0.002-0.013-0.011-0.021-0.03c-0.115-0.289,0.21-1.363,0.313-1.568c0.24-0.481,0.285-0.849,0.144-1.123  c-0.231-0.445-0.908-0.548-1.624-0.656c-1.064-0.161-2.166-0.327-2.077-1.553c0.013-0.173,0.405-0.277,0.692-0.353  c0.179-0.047,0.348-0.092,0.474-0.163l1.433-1.144l-0.007-0.06c-0.12-0.978-0.938-2.089-2.05-2.177  c-0.748-0.06-1.442-0.405-2.177-0.772c-0.606-0.302-1.233-0.614-1.915-0.77c-0.616-0.139-0.974-0.425-1.354-0.729  c-0.347-0.278-0.706-0.564-1.262-0.71c-0.197-0.052-0.422-0.083-0.66-0.115c-0.527-0.074-1.071-0.149-1.37-0.448  c-0.26-0.26-0.565-0.535-0.89-0.825c-0.818-0.735-1.747-1.569-2.118-2.36c-0.11-0.232-0.194-0.438-0.273-0.629  c-0.223-0.545-0.4-0.975-0.953-1.559c-0.349-0.367-0.767-0.613-1.171-0.853c-0.354-0.209-0.688-0.407-0.935-0.665l-3.546-1.594  l0.256,0.336c1.049,1.374,2.441,4.132,2.921,5.788c0.24,0.825,1.262,3.073,2.253,3.489c0.245,0.103,0.43,0.176,0.57,0.23  c0.392,0.153,0.392,0.153,0.431,0.334c0.041,0.186,0.108,0.499,0.413,1.12c0.346,0.703,0.847,1.261,1.378,1.852  c0.205,0.228,0.417,0.464,0.617,0.706c0.261,0.316,0.471,0.61,0.643,0.897c0.165,0.276,0.297,0.55,0.404,0.836  c0.242,0.653,0.626,1.324,0.998,1.972c0.606,1.059,1.234,2.153,1.319,3.261l0.012,0.043c0.165,0.305,0.305,0.512,0.43,0.693  c0.242,0.354,0.403,0.588,0.494,1.274c0.149,1.123,0.638,1.999,1.155,2.927c0.171,0.309,0.349,0.626,0.512,0.954  c0.563,1.126,0.952,2.364,1.328,3.561c0.361,1.148,0.735,2.338,1.263,3.438c0.248,0.515,0.516,1.049,0.789,1.593  c0.873,1.739,1.773,3.537,2.301,5.248c0.183,0.804,0.308,1.536,0.373,2.179c0.002,0.022-0.004,0.039-0.02,0.056  c-0.03,0.035-0.109,0.072-0.238,0.072c-0.166,0-0.394-0.068-0.535-0.266c-0.152-0.212-0.168-0.527-0.038-0.908  c0.159-0.482-0.087-0.932-0.305-1.329c-0.158-0.286-0.306-0.557-0.306-0.814v-0.108h-0.107c-0.051,0-0.098,0.022-0.133,0.064  c-0.105,0.121-0.19,0.508,0.097,2.434l0.064,0.436c0.231,1.621,0.52,3.64,1.655,4.862c0.203,0.219,0.432,0.823,0.652,1.41  c0.362,0.964,0.601,1.555,0.909,1.555c0.04,0,0.082-0.012,0.12-0.034c0.174-0.1,0.47-0.17,0.721-0.17c0.222,0,0.311,0.054,0.32,0.08  c0.001,0.002,0.024,0.081-0.229,0.286c-0.09,0.075-0.239,0.138-0.396,0.202c-0.284,0.12-0.578,0.243-0.657,0.492  c-0.043,0.139-0.012,0.293,0.095,0.463c0.247,0.391,0.596,0.665,0.964,0.954c0.385,0.301,0.781,0.613,1.066,1.075  c0.528,0.853,1.759,2.838,2.63,3.438c0.59,1,1.628,2.124,2.849,3.09l0.13,0.101l0.042-0.158c0.369-1.366,0.702-2.272,0.938-2.552  c0.071-0.084,0.19-0.189,0.316-0.302c0.325-0.29,0.697-0.618,0.712-0.945c0.028-0.627-0.289-0.965-0.569-1.265  c-0.361-0.388-0.624-0.668-0.116-1.46c0.601-0.938,0.128-1.378-0.417-1.889c-0.094-0.086-0.191-0.179-0.29-0.277  c-0.556-0.555-0.093-1.273,0.355-1.967C46.587,50.95,46.783,50.646,46.877,50.353z"></path></svg>