<svg xmlns="http://www.w3.org/2000/svg" xmlns:xlink="http://www.w3.org/1999/xlink" height="300px" width="300px" fill="#ff7101" version="1.1" x="0px" y="0px" viewBox="0 0 100 100" enable-background="new 0 0 100 100" xml:space="preserve"><path d="M90.676,46.359c0.367-0.222,0.408-0.748,0.957-0.301c0.513,0.417,0.246,0.729,1.099,0.686  c0.027-0.542,0.654-1.416,0.123-1.865c0.4-0.414,1.135-0.331,0.246-1.017c-0.226-0.174-0.675-0.197-0.83-0.355  c-0.171-0.174-0.013-0.447-0.167-0.629c-0.209-0.246-0.466-0.116-0.674-0.375c-0.204-0.253-0.006-0.56-0.183-0.803  c-0.123-0.168-0.565-0.171-0.737-0.331c-0.201-0.188-0.306-0.55-0.404-0.797c-0.338-0.056-0.884-0.05-0.936,0.36  c-0.244,0.019-0.471-0.096-0.663-0.244c0.328-0.083,1.024-0.14,0.927-0.624c-0.115-0.568-1.296-0.189-1.058-0.992  c0.97-0.123,1.756,0.511,1.557-0.883c-0.15-1.047-0.597-1.385-1.682-1.383c-0.041-0.823,0.043-1.113,0.807-1.492  c0.593-0.295,1.326-0.452,1.575-1.172c0.173-0.497,0.153-1.303,0.171-1.826c0.03-0.894-0.455-0.722-1.243-0.756  c-0.197-0.773,0.793-0.786,0.868-1.494c0.04-0.371-0.104-0.605-0.188-0.938c-0.146-0.582-0.101-0.728-0.569-1.066  c-0.467-0.336-0.467-0.082-0.556-0.745c-0.052-0.39-0.173-0.785-0.188-1.173c-0.04-1.048,0.818-1.215,1.599-1.548  c0.828-0.354,1.333-0.723,0.356-1.324c-0.853-0.524-1.306-0.757-2.32-0.652c-0.057-1.172-0.57-2.479-1.885-2.555  c-0.783-0.045-0.971,0.237-1.622,0.514c-0.596,0.253-1.357,0.321-2.003,0.238c-0.588-0.076-1.128-0.415-1.75-0.439  c-0.654-0.025-1.334,0.611-1.877,0.535c-0.415-0.059-0.749-0.849-1.191-1.096c-0.496-0.277-1.574-0.978-2.114-0.931  c-0.113,0.237-0.173,0.534-0.137,0.799c-0.539,0.02-0.74,0.124-1.241,0.3c-0.443,0.156-0.854,0.11-1.316,0.2  c-1.472,0.289,0.093,0.866-0.56,1.384c-0.18,0.143-0.97-0.056-1.2-0.067c-0.554-0.026-1.112,0.006-1.667,0  c-0.461-0.005-0.667-0.173-1.071-0.254c-0.39-0.079-0.737,0.124-1.104,0.121c-0.135-0.451-0.294-1.095-0.867-1.105  c-0.131-0.002-0.221,0.265-0.335,0.293c-0.165,0.041-0.341-0.011-0.508,0.008c-0.218,0.024-0.441-0.026-0.657,0.014  c-0.077,0.014-0.759,0.213-0.784,0.246c-0.247,0.321,0.139,0.471,0.01,0.729c-0.212,0.423-1.617,0.615-2.055,0.702  c-0.513,0.102-1.033,0.016-1.547,0.119c-0.587,0.118-0.911,0.525-1.572,0.446c-0.928-0.111-2.396-0.711-2.196-1.871  c0.434-0.021,0.821,0.067,1.22,0.094c0.299-1.354-0.347-2.51-1.729-2.541c-0.715-0.016-1.018,0.012-1.542,0.401  c-0.371,0.275-0.339,0.346-0.833,0.349c-0.307,0.001-0.621-0.059-0.938-0.063c-0.898-0.011-1.041,0.403-1.847,0.672  c-0.317,0.106-0.745,0.066-1.031,0.216c-0.522,0.273-0.292,0.471-0.309,0.971c-0.024,0.732-0.315,1.094-0.827,1.468  c-0.68,0.496-0.518,0.892-0.799,1.611c-0.244,0.624-0.475,0.566-1.203,0.688c-0.243,0.041-0.713-0.021-0.881,0.183  c-0.155,0.188,0.015,0.499-0.162,0.71c-0.334,0.402-1.393,0.409-1.865,0.356c-1.716-0.189-0.888-2.297-2.255-2.885  c-0.72-0.31-1.747-0.383-2.517-0.495c-0.497-0.072-0.995-0.14-1.479-0.183c-1.596-0.14-3.248,0.241-4.815-0.196  c-1.271-0.354-1.481-1.588-2.578-2.179c-0.504-0.271-1.373-0.352-1.979-0.379c-0.908-0.041-1.54-0.131-2.278-0.681  c-0.578-0.431-0.456-0.881-0.487-1.549c-0.031-0.664-0.404-1.168-0.736-1.706c-0.447-0.725-0.683-0.583-1.09-0.061  c-0.346,0.442-0.911,0.976-1.535,0.94c-0.327-0.019-0.67-0.287-1.027-0.317c-0.447-0.038-0.716,0.096-1.124,0.234  c-0.51,0.173-1.281,0.352-1.675,0.715c-0.492,0.454-0.24,0.703-0.002,1.228c0.15,0.329,0.328,0.663,0.172,0.995  c-0.247,0.524-0.783,0.297-0.291,1.038c0.262,0.394,0.573,0.69,0.976,0.806c0.5,0.144,1.197,0.077,1.711,0.049  c0.44-0.024,0.804-0.192,1.197-0.255c0.535-0.084,1.053,0.044,1.561-0.131c-0.282,0.771-1.479,0.754-2.118,0.886  c-0.899,0.187-1.537,0.359-2.019,1.201c-0.25,0.438-0.287,0.6-0.747,0.876c-0.228,0.137-0.428,0.14-0.631,0.36  c-0.158,0.17,0.022,0.382-0.167,0.555c-0.527,0.482-1.67,0.124-2.212-0.08c0.01,0.353,0.852,1.208,1.133,1.481  c0.429,0.416,1.033,0.664,1.518,1.031c0.534,0.407,1.381,2.005,0.553,2.653c-0.342,0.268-0.555-0.024-0.756,0.374  c-0.162,0.321,0.166,0.444,0.066,0.74c-0.21,0.625-0.958,0.705-1.508,0.684c-0.781-0.029-0.697-0.324-1.231-0.75  c-0.284-0.227-1.122-0.646-1.507-0.553c-0.05,0.607,0.277,0.917,0.303,1.491c0.019,0.416-0.118,1.058-0.247,1.438  c-0.073,0.216-0.258,0.359-0.317,0.559c-0.154,0.522,0.075,0.599,0.191,0.938c0.144,0.426,0.115,0.519-0.158,0.953  c-0.32,0.508-0.268,0.36-0.778,0.488c-0.49,0.123-0.494,0.057-0.819,0.438c-0.222,0.26-0.313,0.517-0.635,0.735  c-0.737,0.499-1.201,0.172-1.859-0.342c-0.53-0.415-0.278-0.894-0.691-1.286c-0.678-0.645-1.223,0.125-1.574,0.508  c-0.239,0.26-0.415,0.261-0.674,0.464c-0.508,0.397-0.279,0.218-0.313,0.8c-0.03,0.534,0.288,1.133-0.016,1.678  c-0.36,0.647-0.688,0.58-0.609,1.131c0.092,0.642,0.411,1.205,0.438,1.863c0.029,0.716-0.077,0.763,0.562,1.138  c0.406,0.238,1.43,0.874,1.291,0.32c-0.108-0.432-1.933,0.384-1.792,1.12c0.078,0.414,0.635,0.5,1.005,0.436  c0.464-0.081,0.762-0.628,1.135-0.192c0.324,0.38,0.026,0.825-0.261,1.083c-0.247,0.222-0.694,0.277-0.868,0.621  c-0.164,0.323-0.094,1.13-0.148,1.501c-0.024,0.168-0.141,0.524-0.114,0.668c0.044,0.24,0.294,0.398,0.32,0.564  c0.063,0.41-0.237,0.72-0.185,1.119c0.721,0.155,2.977-1.719,2.31-1.909c-0.644-0.184-0.35,1.011-0.695,1.543  c-0.179,0.274-0.338,0.372-0.252,0.706c0.087,0.336,0.62,0.121,0.13,0.675c-0.395,0.447-0.939,0.438-0.861,1.239  c0.085,0.855,0.712,1.129,1.106,1.741c-1.02,0.184-0.771,1.116-0.489,1.755c0.419,0.95,1.586,0.832,1.536,1.872  c-0.02,0.4-0.753-0.002-1.11,0.019c0.007,0.298,0.214,0.512,0.295,0.808c0.098,0.358,0.049,0.751,0.084,1.117  c0.052,0.532,0.298,0.888,0.502,1.368c0.173,0.408,0.228,0.81,0.373,1.245c0.229,0.683,0.265,1.337,0.433,2.049  c0.184,0.778,0.662,1.331,0.771,2.141c0.194,1.445,0.612,2.78,0.798,4.2c0.095,0.726,0.068,1.392,0.126,2.131  c0.053,0.678,0.459,1.111,0.438,1.812c-0.018,0.574,0.109,1.127,0.199,1.689c0.045,0.283,0.013,0.733,0.117,0.989  c0.095,0.229,0.193,0.215,0.288,0.385c0.392,0.705,0.248,1.283,0.333,2.079c0.12,1.126,0.52,1.824,1.076,2.731  c0.491,0.799,0.829,1.84,1.488,2.563c0.372,0.409,0.561,0.277,1.071,0.076c0.369-0.145,0.802-0.236,1.068-0.57  c0.754,0.559,0.575,1.683,1.733,1.808c0.376,0.04,0.831-0.002,1.114-0.253c0.396-0.351,0.339-1.132,0.946-1.187  c0.43-0.039,0.681,0.456,1.124,0.438c0.539-0.022,0.892-0.581,1.142-0.986c0.628-1.014-0.136-1.465,0.232-2.443  c-0.438-0.032-0.875-0.101-1.301-0.209c0.43-0.178,0.804-0.281,1.254-0.366c0.581-0.109,0.672,0.036,0.676-0.681  c0.006-1.128-0.984-0.748-1.313-1.497c-0.153-0.351-0.054-0.84-0.205-1.192c-0.146-0.342-0.588-0.865-0.546-1.265  c0.098-0.927,1.804-0.217,1.962-1.393c0.301,0.218,0.381,0.537,0.738,0.656c0.248,0.082,1.108,0.085,1.288-0.123  c0.212-0.245-0.059-0.634,0.07-0.879c0.163-0.308,0.605-0.337,0.921-0.455c0.749-0.28,1.316-0.386,1.57-1.172  c0.125-0.387,0.152-1.281,0.54-1.44c0.79-0.324,1.721,0.981,2.508,0.884c0.337-0.042,0.327-0.277,0.562-0.518  c0.366-0.376,0.535-0.354,1.12-0.359c0.617-0.006,1.91,0.257,2.49,0.005c0.607-0.264,0.769-1.228,0.794-1.834  c0.031-0.769-0.371-1.333-0.563-2.059c-0.239-0.908,0.228-1.235,0.4-2.039c0.573,0.504,0.935,0.726,1.665,0.964  c0.503,0.164,1.146,0.359,1.677,0.467c1.485,0.303,2.781-0.266,4.248,0.427c0.303-0.486,0.187-0.725-0.051-1.171  c-0.137-0.255-0.272-0.217-0.314-0.635c-0.026-0.262,0.007-0.487,0.076-0.733c0.212-0.753,0.731-0.78,1.364-1.144  c0.528-0.304,0.804-0.764,0.929-1.324c0.498,0.39,1.076,0.895,1.634,0.207c0.256-0.316,0.462-1.2,0.444-1.622  c0.465-0.236,1.109,0.311,1.503,0.088c0.354-0.201,0.134-0.998,0.175-1.361c0.038-0.338,0.193-0.542,0.237-0.848  c0.089-0.61-0.407-1.245,0.591-1.063c0.938,0.172,1.195,0.35,1.69-0.718c0.202-0.436,0.196-0.513,0.642-0.797  c0.582-0.371,0.549-0.476,0.856-1.048c0.115-0.214-0.049-0.324,0.227-0.402c0.113-0.033,0.772,0.463,0.857,0.578  c0.26,0.35,0.147,0.513,0.198,0.921c0.049,0.397-0.099,0.466,0.389,0.516c0.391,0.04,0.471-0.104,0.674-0.37  c0.264-0.345,0.151-0.508,0.264-0.897c0.112-0.389,0.271-0.575,0.484-0.936c0.144-0.244,0.189-0.701,0.358-0.864  c0.246-0.237,0.612-0.125,0.904-0.244c0.992-0.405,0.394-1.176,0.873-1.876c0.419-0.612,1.456-0.613,1.703-1.308  c0.181-0.509-2.268-1.238-1.953-2.371c0.017-0.057,0.261,0.041,0.308-0.067c0.06-0.134-0.006-0.319,0.074-0.459  c0.134-0.232,0.456-0.576,0.553-0.847c0.094-0.263-0.054-0.603,0.003-0.874c0.432-2.072,2.662,0.439,3.614-0.509  c0.398-0.397,0.261-1.064,0.577-1.52c0.178-0.256,0.384-0.266,0.499-0.529c0.114-0.261,0.063-0.594,0.064-0.875  c0.007-0.792-0.056-1.304,0.192-2c0.24-0.672,0.186-1.176-0.146-1.846c0.601,0.218,1.163,0.726,1.811,0.83  c0.425,0.067,0.915,0,1.347,0c0.636,0,1.197-0.098,1.717,0.232c0.549,0.35,1.002,0.977,1.408,1.476  c0.719,0.882,3.482,3.52,3.673,0.842c0.476,0.079,0.826,0.553,1.277,0.713c0.339,0.121,0.621,0.112,0.967,0.04  c0.57-0.119,1.142-0.146,1.719-0.205c0.613-0.062,0.546-0.088,0.914-0.446c0.269-0.261,0.16-0.493,0.659-0.4  c0.396,0.074,0.732,0.671,1.022,0.917c0.687,0.583,1.552,0.975,1.332,2.017c-0.138,0.654-0.402,1.408-0.642,2.012  c-0.129,0.326-0.313,0.577-0.375,0.936c-0.107,0.62-0.078,0.404,0.314,0.844c0.562,0.631,0.237,1.186,0.373,1.955  c0.153,0.869,0.799,1.179,1.609,1.253c0.936,0.086,1.25,0.148,1.811-0.576c0.687-0.885-0.016-1.012-0.249-1.922  c-0.145-0.563,0.275-0.854,0.519-1.329c0.296-0.58,0.607-1.01,1.001-1.534c0.392-0.521,0.709-1.146,1.211-1.576  c0.132-0.113,0.511-0.479,0.725-0.37C90.566,45.295,90.596,46.408,90.676,46.359z"/></svg>