<!--?xml version="1.0" standalone="no"?-->

<svg version="1.0" xmlns="http://www.w3.org/2000/svg" width="300.000000pt" height="215.000000pt" viewBox="0 0 300.000000 215.000000" preserveAspectRatio="xMidYMid meet">
<g transform="translate(0.000000,215.000000) scale(0.100000,-0.100000)" fill="#ff7101" stroke="none">
<path d="M2330 1997 c-13 -30 -22 -70 -21 -97 0 -25 -6 -57 -13 -72 -11 -20
-11 -29 -3 -36 13 -9 100 -43 101 -39 2 4 61 130 87 183 29 61 32 58 -73 93
l-56 19 -22 -51z" id="node1" class="node"></path>
<path d="M1217 1913 c-4 -3 -7 -19 -7 -35 0 -15 -4 -28 -8 -28 -5 0 -14 -11
-20 -25 -6 -14 -18 -25 -26 -25 -16 0 -36 -29 -36 -54 0 -8 9 -17 19 -21 24
-7 35 -35 21 -49 -8 -8 -14 -6 -21 7 -7 12 -22 17 -50 17 l-39 0 2 -64 c2 -50
7 -66 19 -69 24 -6 79 32 79 54 0 10 7 19 15 19 8 0 15 -6 15 -13 0 -8 9 -22
21 -33 19 -17 21 -18 30 -1 6 9 18 17 27 17 9 0 35 12 57 25 28 17 55 25 88
25 26 0 47 4 47 9 0 13 -81 81 -96 81 -22 0 -44 42 -44 83 0 50 -14 77 -39 70
-10 -3 -22 0 -25 6 -8 12 -20 14 -29 4z" id="node2" class="node"></path>
<path d="M1916 1848 c8 -28 4 -24 39 -32 37 -8 71 13 62 38 -5 12 -19 16 -57
16 -49 0 -51 -1 -44 -22z" id="node3" class="node"></path>
<path d="M816 1833 c4 -16 13 -38 20 -50 12 -20 11 -24 -8 -38 -12 -8 -28 -15
-34 -15 -14 0 -37 -58 -28 -71 3 -5 16 -9 30 -9 28 0 28 0 10 -45 -10 -24 -22
-35 -35 -35 -27 0 -27 -16 -1 -30 24 -13 26 -52 5 -70 -22 -18 -19 -27 15 -39
30 -10 30 -11 30 -85 0 -74 0 -75 -27 -78 -26 -3 -28 -7 -34 -58 -7 -69 -4
-76 31 -84 28 -5 29 -7 32 -73 l3 -68 40 0 c34 0 40 3 43 23 3 20 8 22 33 17
36 -8 69 2 69 21 0 8 8 14 19 14 10 0 21 9 24 20 3 11 14 20 25 20 15 0 21 9
25 41 3 23 1 52 -4 66 -7 19 -13 22 -34 17 -17 -4 -25 -2 -25 7 -1 23 -39 65
-47 53 -5 -6 -23 -13 -40 -16 -31 -4 -33 -3 -33 27 0 17 3 35 7 39 7 7 34 89
30 91 -1 1 -14 9 -29 18 -32 20 -47 86 -27 123 10 19 10 27 1 36 -18 18 -15
48 6 48 13 0 23 18 40 72 21 67 21 72 5 90 -9 10 -23 16 -30 13 -7 -3 -20 -8
-28 -11 -9 -4 -15 -1 -15 8 0 14 -39 38 -61 38 -5 0 -7 -12 -3 -27z" id="node4" class="node"></path>
<path d="M1635 1708 c-11 -6 -39 -28 -62 -50 -30 -26 -52 -38 -73 -38 -23 0
-33 -6 -39 -24 -5 -13 -18 -26 -29 -28 -28 -8 -34 -56 -10 -80 27 -27 16 -46
-29 -50 -31 -2 -39 -7 -41 -25 -4 -24 -16 -30 -27 -13 -11 18 -25 0 -24 -33 1
-41 28 -87 57 -98 20 -8 22 -5 22 27 0 38 3 39 74 12 27 -11 28 -14 23 -58
l-6 -47 79 -83 c79 -82 80 -83 122 -77 39 5 78 -5 78 -21 0 -4 -41 -7 -92 -7
l-92 0 -8 -41 c-8 -36 -13 -42 -40 -48 -17 -3 -36 -1 -43 4 -7 6 -19 8 -27 5
-8 -3 -26 3 -39 14 -20 17 -22 23 -12 39 7 12 10 35 6 56 -6 36 -5 36 31 36
30 0 36 3 36 21 0 20 -4 21 -52 15 -29 -3 -63 -6 -75 -6 -18 0 -23 -6 -23 -25
0 -14 5 -33 11 -43 14 -23 -13 -82 -42 -89 -10 -3 -19 -12 -19 -19 0 -11 -11
-14 -42 -12 -42 3 -43 2 -46 -29 -3 -32 -2 -33 31 -33 22 0 37 6 41 15 3 8 17
15 31 15 14 0 37 7 50 16 16 10 34 14 50 10 26 -7 31 -25 27 -90 -2 -16 4 -36
12 -45 7 -9 21 -31 30 -48 19 -38 31 -42 39 -13 4 14 14 20 35 20 17 0 34 5
37 10 3 6 19 10 35 10 35 0 55 -30 46 -71 -5 -24 -2 -29 15 -29 45 0 57 16 53
69 -3 28 0 52 6 56 5 3 10 17 10 31 0 21 5 24 34 24 18 0 38 -6 44 -13 15 -18
1 -106 -21 -138 -26 -36 -21 -64 19 -98 28 -26 39 -30 50 -20 8 6 14 19 14 28
0 9 7 34 14 56 l14 40 78 0 c53 0 79 -4 82 -12 2 -7 10 -13 18 -13 14 0 13
-20 -2 -67 -2 -7 0 -13 5 -13 5 0 11 15 13 33 3 17 28 96 56 173 28 78 58 182
67 230 9 49 24 116 34 149 25 82 44 191 36 205 -4 6 -14 9 -22 6 -38 -15 -113
66 -113 123 0 50 -55 35 -81 -22 -10 -23 -19 -59 -19 -79 0 -45 -17 -49 -68
-18 -18 11 -36 20 -41 20 -21 0 -91 -55 -101 -80 -9 -21 -20 -29 -51 -34 -37
-6 -39 -8 -39 -41 0 -18 5 -37 10 -40 17 -11 11 -23 -15 -29 -16 -4 -25 -13
-25 -26 0 -13 -7 -20 -19 -20 -16 0 -19 11 -24 88 -4 48 -16 114 -27 147 -18
54 -24 62 -63 78 -23 9 -49 17 -58 17 -36 0 -48 36 -29 86 l11 27 22 -20 c25
-23 60 -43 76 -43 5 0 12 9 16 19 3 11 30 33 60 50 63 36 80 71 49 101 -25 24
-74 33 -99 18z" id="node5" class="node"></path>
<path d="M1205 1454 c-14 -11 -33 -14 -65 -10 -45 6 -46 5 -55 -26 -8 -26 -15
-32 -32 -31 -13 2 -23 -3 -23 -10 1 -19 40 -42 97 -56 47 -11 55 -11 76 5 22
17 61 120 51 136 -8 12 -27 9 -49 -8z" id="node6" class="node"></path>
<path d="M780 941 c0 -16 -61 -71 -78 -71 -8 0 -25 9 -37 20 -14 13 -25 16
-35 10 -12 -7 -12 -12 -2 -22 7 -7 12 -38 12 -76 l0 -64 33 7 c17 4 37 10 42
13 6 4 18 5 28 4 12 -2 17 4 17 22 0 22 5 26 30 26 29 0 29 0 23 -49 -5 -47
-5 -48 28 -60 18 -6 57 -14 86 -18 51 -6 56 -4 89 28 18 18 34 40 34 49 0 16
-32 41 -64 50 -11 3 -23 18 -27 34 -4 15 -23 41 -41 58 l-33 29 -5 -23 c-7
-29 -43 -31 -48 -3 -5 29 -52 62 -52 36z" id="node7" class="node"></path>
<path d="M1337 803 c-4 -3 -7 -22 -7 -41 0 -44 12 -34 17 13 4 35 2 40 -10 28z" id="node8" class="node"></path>
<path d="M966 577 c-34 -128 -34 -132 -12 -159 38 -46 93 -60 150 -38 36 13
37 60 2 60 -39 0 -56 24 -45 62 5 18 9 34 9 35 0 1 -23 13 -50 27 -36 18 -52
22 -54 13z" id="node9" class="node"></path>
<path d="M1594 553 c0 -12 -7 -19 -21 -21 -23 -3 -29 -13 -17 -25 4 -3 7 -23
9 -44 1 -21 6 -60 10 -87 l8 -49 -35 7 c-35 6 -35 6 -42 -34 -5 -30 -11 -40
-24 -40 -31 0 -31 -9 2 -45 33 -36 90 -65 128 -65 13 0 31 -7 41 -14 20 -16
67 -9 67 9 0 21 34 75 47 75 27 0 43 -14 43 -36 0 -21 5 -24 34 -24 24 0 39 7
49 20 9 14 27 21 54 23 l41 2 6 61 c3 34 17 94 31 135 25 73 25 101 -2 127
-11 11 -17 11 -28 2 -13 -11 -13 -14 1 -25 11 -8 14 -19 10 -33 -7 -22 -26
-31 -26 -12 0 6 -8 10 -18 10 -10 0 -27 7 -38 15 -29 22 -52 18 -83 -16 -36
-39 -65 -36 -69 7 -2 25 -11 35 -45 52 -23 11 -55 24 -72 27 -16 4 -37 9 -46
11 -12 3 -16 -1 -15 -13z" id="node10" class="node"></path>
<path d="M1280 431 c0 -11 -3 -26 -6 -34 -4 -10 4 -16 26 -19 38 -6 43 1 29
41 -12 35 -49 44 -49 12z" id="node11" class="node"></path>
<path d="M1163 364 c-9 -24 39 -68 66 -59 23 7 29 43 9 63 -18 18 -67 15 -75
-4z" id="node12" class="node"></path>
</g>
<g transform="translate(0.000000,215.000000) scale(0.100000,-0.100000)" fill="#FFFFFF" stroke="none">

</g>
</svg>