<svg height='300px' width='300px'  fill="#ff7101" xmlns="http://www.w3.org/2000/svg" xmlns:xlink="http://www.w3.org/1999/xlink" version="1.1" x="0px" y="0px" viewBox="0 0 64 64" enable-background="new 0 0 64 64" xml:space="preserve"><path d="M54.271,2.787c-0.285-0.43-0.64-0.63-0.915-0.756l-0.03-0.013l-0.028,0.008c-0.406,0.101-1.05,0.305-1.673,0.505  c-0.421,0.134-0.82,0.262-1.095,0.341l-0.025,0.011c-0.294,0.189-0.564,0.39-0.827,0.583c-0.703,0.519-1.311,0.967-2.012,0.967  c-0.481,0-0.987-0.219-1.54-0.667c-0.121-0.098-0.264-0.147-0.423-0.147c-0.841,0-1.974,1.381-2.582,2.123  C43.032,5.848,42.959,5.938,42.904,6c-0.294,0.339-0.855,0.357-1.447,0.378c-0.487,0.017-0.991,0.034-1.351,0.245  c-0.396,0.235-0.711,0.345-0.989,0.345c-0.241,0-0.443-0.079-0.679-0.172c-0.327-0.127-0.696-0.272-1.289-0.272  c-0.038,0-0.077,0-0.117,0.002c-0.748,0.024-1.196,0.16-1.411,0.427c-0.226,0.281-0.159,0.648-0.087,1.036  c0.094,0.511,0.192,1.038-0.367,1.443c-0.193,0.139-0.439,0.482-0.7,0.845c-0.364,0.507-0.818,1.136-1.098,1.136  c-0.016,0-0.031-0.001-0.045-0.005c-0.578-0.178-1.303-1.044-1.833-1.676C31.34,9.55,31.201,9.384,31.08,9.25l-0.97-0.427  l-0.036-0.009c-0.29,0-0.506,0.02-0.757,0.113c-0.076,0.028-0.155,0.075-0.239,0.124c-0.114,0.067-0.242,0.142-0.333,0.149h-0.023  c-0.22,0-0.329-0.226-0.435-0.445c-0.026-0.053-0.051-0.104-0.077-0.151c-0.121-0.218-0.265-0.329-0.429-0.329  c-0.609,0-1.149,1.605-1.207,1.836c-0.254,0.646-0.74,0.797-1.169,0.931c-0.576,0.178-1.119,0.346-0.733,1.652  c0.294,1.001-0.286,1.354-0.958,1.76c-0.197,0.12-0.401,0.244-0.591,0.39c-0.193,0.147-0.259,0.371-0.184,0.626  c0.138,0.476,0.739,1.015,1.17,1.052c0.089,0.009,0.198,0.015,0.32,0.02c0.528,0.024,1.324,0.06,1.602,0.401  c0.086,0.107,0.116,0.237,0.09,0.396c-0.197,1.225-0.649,1.348-1.221,1.503c-0.364,0.098-0.775,0.21-1.149,0.635  c-0.258,0.292-0.412,0.535-0.548,0.75c-0.251,0.396-0.449,0.709-1.179,1.113c-0.174,0.095-0.359,0.141-0.565,0.141  c-0.27,0-0.545-0.08-0.812-0.157c-0.394-0.115-0.823-0.214-1.171-0.099c-0.203,0.067-0.292,0.196-0.356,0.291  c-0.065,0.093-0.095,0.13-0.178,0.13c-0.065,0-0.159-0.026-0.277-0.076c-0.298-0.126-0.543-0.188-0.747-0.188  c-0.521,0-0.682,0.4-0.824,0.754c-0.134,0.332-0.26,0.646-0.652,0.689l-0.115,0.011c-0.323,0.036-0.765,0.085-1.198,0.085  c-0.454,0-0.809-0.055-1.055-0.163c-0.294-0.127-0.438-0.329-0.438-0.615v-0.07l-0.068-0.017c-0.279-0.069-0.598-0.075-0.875-0.075  l-0.339,0.002c-0.22,0-0.455-0.004-0.675-0.034l-0.039-0.006l-1.17,0.935c-0.073,0.039-0.203,0.074-0.339,0.11  c-0.325,0.085-0.691,0.183-0.711,0.453c-0.085,1.186,1.005,1.351,1.881,1.483c0.55,0.083,1.068,0.161,1.218,0.45  c0.09,0.175,0.051,0.426-0.121,0.772c-0.074,0.147-0.396,1.126-0.265,1.451c0.032,0.08,0.084,0.113,0.122,0.127  c0.167,0.06,0.507,0.014,0.886-0.044c0.288-0.045,0.586-0.09,0.845-0.09c0.286,0,0.462,0.058,0.54,0.174  c0.085,0.131,0.058,0.358-0.081,0.674c-0.058,0.132-0.134,0.272-0.215,0.419c-0.227,0.414-0.462,0.841-0.314,1.184  c0.085,0.2,0.285,0.338,0.61,0.422c0.504,0.132,1.111,0.462,1.331,0.896c0.096,0.192,0.164,0.409,0.235,0.638  c0.067,0.216,0.137,0.439,0.233,0.643c0.145,0.308-0.024,0.404-0.39,0.577c-0.306,0.146-0.687,0.326-0.687,0.775  c0,0.232,0.197,0.373,0.405,0.523c0.35,0.25,0.745,0.534,0.5,1.321c-0.258,0.566-0.274,1.325-0.04,1.888  c0.167,0.401,0.45,0.686,0.817,0.821c0.116,0.044,0.242,0.066,0.371,0.066c0.502,0,1.007-0.321,1.451-0.603  c0.428-0.271,0.813-0.512,0.99-0.328c0.143,0.148,0.205,0.545,0.184,1.184c-0.015,0.451,0.177,0.709,0.379,0.982  c0.092,0.125,0.188,0.255,0.271,0.411c0.183,0.343,0.087,1.053-0.004,1.738c-0.072,0.535-0.14,1.04-0.091,1.419  c0.017,0.124-0.013,0.383-0.044,0.657c-0.081,0.721-0.173,1.536,0.27,1.603c0.151,0.02,0.419-0.064,0.705-0.157  c0.228-0.074,0.463-0.151,0.593-0.151c0.034,0,0.044,0.004,0.046,0.004c0.538,1.078-0.061,2.245-0.64,3.373  c-0.312,0.606-0.607,1.182-0.711,1.712c-0.069,0.214-0.225,0.455-0.39,0.712c-0.392,0.607-0.835,1.297-0.271,1.861  c0.083,0.083,0.166,0.16,0.246,0.235c0.46,0.429,0.737,0.688,0.319,1.342c-0.498,0.777-0.186,1.11,0.116,1.434  c0.219,0.234,0.445,0.476,0.425,0.921c-0.009,0.197-0.298,0.456-0.53,0.661c-0.11,0.099-0.215,0.191-0.282,0.27  c-0.218,0.259-0.494,0.997-0.817,2.193l-0.016,0.056l0.047,0.038c0.784,0.618,1.611,1.118,2.33,1.405  c0.594,0.236,1.085,0.396,1.552,0.396c0.563,0,1.079-0.229,1.673-0.744c0.237-0.206,0.633-0.279,0.983-0.346  c0.134-0.025,0.264-0.051,0.38-0.079c1.2-0.312,3.799-2.595,4.154-3.863c0.129-0.466,0.191-1.143,0.258-1.86  c0.104-1.146,0.225-2.442,0.649-3.006c0.27-0.158,0.542-0.368,0.805-0.572c0.435-0.336,0.882-0.683,1.336-0.812l6.11-1.732  c0.29-0.082,0.589-0.122,0.913-0.122c0.78,0,1.552,0.232,2.298,0.458c0.296,0.087,0.576,0.173,0.855,0.241l0.145,0.037l-0.036-0.145  c-0.217-0.862-0.91-0.974-1.49-0.974c-0.177,0-0.355,0.01-0.529,0.02c-0.305,0.019-0.608,0.029-0.809-0.002  c-0.838-0.129-1.381-0.524-1.615-1.176c-0.407-1.128,0.211-2.678,1-3.564c0.635-0.712,1.604-2.037,2.078-2.837  c0.292-0.493,0.247-0.959,0.205-1.408c-0.056-0.581-0.103-1.085,0.565-1.589c0.534,0.049,0.961-0.229,1.419-0.524  c0.43-0.274,0.872-0.559,1.404-0.559c0.201,0,0.398,0.037,0.608,0.118c0.236,0.09,0.592,0.157,0.935,0.222  c0.444,0.083,0.904,0.17,1.091,0.301c0.219,0.156,0.429,0.241,0.59,0.241c0.146,0,0.219-0.067,0.254-0.124  c0.084-0.135,0.055-0.354-0.089-0.65c-0.217-0.444-0.128-1.65-0.065-2.53c0.027-0.389,0.052-0.723,0.052-0.964v-2.224h-0.091  c-0.15,0-0.372,0.125-0.605,0.257c-0.188,0.107-0.4,0.228-0.525,0.232c0.027-0.097,0.163-0.352,0.265-0.542l0.08-0.153l-0.838-0.765  l0.454-0.543l0.752,0.372l0.058-0.154c0.255-0.672,0.573-1.508-0.02-2.101c-0.132-0.129-0.041-0.475,0.03-0.751  c0.044-0.169,0.084-0.328,0.084-0.45c0-0.328-0.116-0.673-0.228-1.007c-0.092-0.274-0.188-0.557-0.217-0.828  c-0.043-0.34-0.166-0.638-0.285-0.927c-0.149-0.361-0.291-0.703-0.292-1.129c-0.002-0.407,0.081-0.897,0.252-1.5l0.018-0.063  l-1.225-0.796c-0.001-0.124-0.058-0.236-0.113-0.345c-0.035-0.068-0.067-0.133-0.087-0.2c-0.095-0.337-0.096-0.768-0.002-1.047  c0.074-0.215,0.323-0.433,0.455-0.55c0.074-0.064,0.156-0.095,0.249-0.095c0.269,0,0.599,0.25,0.889,0.471  c0.199,0.152,0.387,0.294,0.549,0.355l0.081,0.03l0.032-0.08c0.103-0.245,0.204-0.486,0.303-0.72  c0.234-0.553,0.453-1.077,0.616-1.517c0.322-0.881,0.852-1.527,1.414-2.21c0.086-0.106,0.173-0.213,0.26-0.321  c0.085-0.106,0.168-0.203,0.248-0.298c0.247-0.294,0.479-0.572,0.693-0.958c0.165-0.3,0.227-0.627,0.283-0.944  c0.052-0.274,0.1-0.533,0.208-0.77c0.576-1.065,0.663-2.246,0.748-3.387c0.053-0.716,0.106-1.458,0.282-2.166  C54.577,4.601,54.78,3.55,54.271,2.787z"></path></svg>